<svg width="280" height="400" viewBox="0 0 280 400" fill="none" xmlns="http://www.w3.org/2000/svg">
<rect width="280" height="400" fill="#1E1E1E"/>
<path d="M0 0H280V400H0V0Z" fill="white"/>
<path d="M86 8H10C8.89543 8 8 8.89543 8 10V70C8 71.1046 8.89543 72 10 72H86C87.1046 72 88 71.1046 88 70V10C88 8.89543 87.1046 8 86 8Z" fill="#F56060"/>
<path d="M32.4766 62V22H48.2578C51.2917 22 53.8763 22.5794 56.0117 23.7383C58.1471 24.8841 59.7747 26.4792 60.8945 28.5234C62.0273 30.5547 62.5938 32.8984 62.5938 35.5547C62.5938 38.2109 62.0208 40.5547 60.875 42.5859C59.7292 44.6172 58.069 46.1992 55.8945 47.332C53.7331 48.4648 51.1159 49.0312 48.043 49.0312H37.9844V42.2539H46.6758C48.3034 42.2539 49.6445 41.974 50.6992 41.4141C51.7669 40.8411 52.5612 40.0534 53.082 39.0508C53.6159 38.0352 53.8828 36.8698 53.8828 35.5547C53.8828 34.2266 53.6159 33.0677 53.082 32.0781C52.5612 31.0755 51.7669 30.3008 50.6992 29.7539C49.6315 29.194 48.2773 28.9141 46.6367 28.9141H40.9336V62H32.4766Z" fill="white"/>
<path d="M8 78C8 76.8954 8.8954 76 10 76H86C87.1046 76 88 76.8954 88 78V98C88 99.105 87.1046 100 86 100H10C8.8954 100 8 99.105 8 98V78Z" fill="#F32030"/>
<path d="M32.9482 94V83.0909H37.2521C38.0795 83.0909 38.7844 83.2489 39.3668 83.565C39.9492 83.8775 40.3931 84.3125 40.6985 84.87C41.0075 85.424 41.1619 86.0632 41.1619 86.7876C41.1619 87.5121 41.0057 88.1513 40.6932 88.7053C40.3807 89.2592 39.9279 89.6907 39.3349 89.9996C38.7454 90.3086 38.0316 90.4631 37.1935 90.4631H34.4503V88.6147H36.8207C37.2646 88.6147 37.6303 88.5384 37.918 88.3857C38.2092 88.2294 38.4258 88.0146 38.5678 87.7411C38.7134 87.4641 38.7862 87.1463 38.7862 86.7876C38.7862 86.4254 38.7134 86.1094 38.5678 85.8395C38.4258 85.5661 38.2092 85.3548 37.918 85.2056C37.6268 85.0529 37.2575 84.9766 36.81 84.9766H35.2546V94H32.9482ZM46.5273 94H42.6601V83.0909H46.5592C47.6565 83.0909 48.6011 83.3093 49.393 83.7461C50.1849 84.1793 50.7939 84.8026 51.2201 85.6158C51.6498 86.429 51.8646 87.402 51.8646 88.5348C51.8646 89.6712 51.6498 90.6477 51.2201 91.4645C50.7939 92.2812 50.1814 92.908 49.3824 93.3448C48.5869 93.7816 47.6352 94 46.5273 94ZM44.9665 92.0238H46.4314C47.1132 92.0238 47.6867 91.9031 48.1519 91.6616C48.6207 91.4165 48.9722 91.0384 49.2066 90.527C49.4445 90.0121 49.5635 89.348 49.5635 88.5348C49.5635 87.7287 49.4445 87.07 49.2066 86.5586C48.9722 86.0472 48.6224 85.6708 48.1572 85.4293C47.692 85.1879 47.1185 85.0671 46.4367 85.0671H44.9665V92.0238ZM53.5732 94V83.0909H60.7962V84.9925H55.8796V87.592H60.3168V89.4936H55.8796V94H53.5732Z" fill="white"/>
<path d="M140 320C189.706 320 230 279.706 230 230C230 180.294 189.706 140 140 140C90.2944 140 50 180.294 50 230C50 279.706 90.2944 320 140 320Z" fill="#FDD8D8" fill-opacity="0.5"/>
<path d="M0 396H280V400H0V396Z" fill="#F56060"/>
<path fill-rule="evenodd" clip-rule="evenodd" d="M144 182H136V248.466L118.99 232L114 236.831L140 262L166 236.831L161.01 232L144 248.466V182ZM100 254H108V270H172V254H180V278H100V254Z" fill="#F32030"/>
</svg>
